inDegrees=no
num_controls=7
num_derivatives=13
num_iterations=69
num_multipliers=7
num_parameters=0
num_slacks=7
num_states=26
objective=0.331277
objective_accelerations=0.041337
objective_balance=0.001475
objective_effort=0.030105
objective_height=0.257095
objective_ligament=0.001265
solver_duration=718.202088
status=Solve_Succeeded
success=true
DataType=double
version=3
OpenSimVersion=4.5
endheader
time	/jointset/ground_pelvis/pelvis_tilt/value	/jointset/ground_pelvis/pelvis_tx/value	/jointset/ground_pelvis/pelvis_ty/value	/jointset/hip_r/hip_flexion_r/value	/jointset/hip_r/hip_adduction_r/value	/jointset/hip_r/hip_rotation_r/value	/jointset/back/lumbar_extension/value	/jointset/patellofemoral_r/patellar_flexion_r/value	/jointset/knee_r/knee_flexion_r/value	/jointset/knee_r/knee_adduction_r/value	/jointset/knee_r/knee_rotation_r/value	/jointset/ankle_r/ankle_angle_r/value	/jointset/subtalar_r/subtalar_angle_r/value	/jointset/ground_pelvis/pelvis_tilt/speed	/jointset/ground_pelvis/pelvis_tx/speed	/jointset/ground_pelvis/pelvis_ty/speed	/jointset/hip_r/hip_flexion_r/speed	/jointset/hip_r/hip_adduction_r/speed	/jointset/hip_r/hip_rotation_r/speed	/jointset/back/lumbar_extension/speed	/jointset/patellofemoral_r/patellar_flexion_r/speed	/jointset/knee_r/knee_flexion_r/speed	/jointset/knee_r/knee_adduction_r/speed	/jointset/knee_r/knee_rotation_r/speed	/jointset/ankle_r/ankle_angle_r/speed	/jointset/subtalar_r/subtalar_angle_r/speed	/forceset/tau_hip_flexion_r	/forceset/tau_hip_adduction_r	/forceset/tau_hip_rotation_r	/forceset/tau_knee_flexion_r	/forceset/tau_ankle_angle_r	/forceset/tau_subtalar_angle_r	/forceset/tau_lumbar_extension	lambda_cid13_p0	lambda_cid14_p0	lambda_cid14_p1	lambda_cid14_p2	lambda_cid14_p3	lambda_cid14_p4	lambda_cid14_p5	/jointset/ground_pelvis/pelvis_tilt/accel	/jointset/ground_pelvis/pelvis_tx/accel	/jointset/ground_pelvis/pelvis_ty/accel	/jointset/hip_r/hip_flexion_r/accel	/jointset/hip_r/hip_adduction_r/accel	/jointset/hip_r/hip_rotation_r/accel	/jointset/back/lumbar_extension/accel	/jointset/patellofemoral_r/patellar_flexion_r/accel	/jointset/knee_r/knee_flexion_r/accel	/jointset/knee_r/knee_adduction_r/accel	/jointset/knee_r/knee_rotation_r/accel	/jointset/ankle_r/ankle_angle_r/accel	/jointset/subtalar_r/subtalar_angle_r/accel	gamma_cid13_p0	gamma_cid14_p0	gamma_cid14_p1	gamma_cid14_p2	gamma_cid14_p3	gamma_cid14_p4	gamma_cid14_p5
0.5	-0.203947931890824	0.01748509053180173	0.7836363510866639	1.015431095041124	-0.2265234581373738	-0.1065351797351616	-0.6569263025715257	1.0220898275395	1.022089827540198	-0.04968665980271099	0.1734028995591822	0.3037293830996389	0.1363359420874314	-0.5173851823815739	-0.2195726374944699	-0.5919903856979816	2.195680002268103	-0.01205672898200817	0.2149084891572933	-0.7243061625794238	2.100871253455972	2.100871253455889	-0.4672787473630187	-0.007791800811754819	0.5372024098482128	0.1929654718518465	-0.2360901146046245	0.02842386225429666	0.01534062043205294	-0.2732365994781671	-0.01392542428972459	-0.005427146665827336	0.2633261683999923	-5.264770421640669	-47.16577304727625	-10.42338813218387	1.864388703077461	-3.808135416015578	-639.1545461675736	48.14957153591791	0.5192885014155538	0.6944513099921215	-0.4748665000448123	-1.505400361224275	-0.2149871182509761	-0.5712198310045754	2.050326324388888	-1.550843198034463	-1.550843198034422	0.519387168244191	-0.0942342379124378	-0.7467318118669846	-0.423263955386148	-2.155026812292419e-07	-2.240909191320629e-07	6.884454183472285e-07	-2.072868618042543e-06	6.054324670500708e-08	-3.422875334640332e-07	2.612256527251932e-07
0.51	-0.2090945507086206	0.0153242478522015	0.7776941363269488	1.037309053232106	-0.2266556606916049	-0.1044133388252454	-0.6640665685367531	1.043018045375684	1.043018045376495	-0.05433014082065703	0.1733213746957403	0.3090627823188223	0.1382423215311384	-0.5118507892028442	-0.2125828091945941	-0.5963156759088153	2.179619880728921	-0.01436706645761429	0.2094442456512073	-0.7036702327940361	2.08448630254025	2.084486302540301	-0.4614050754761518	-0.008493604348591265	0.5293892859851465	0.1882799570747361	-0.2439598847816651	0.02973671371189683	0.0152607847671958	-0.2781969431323364	-0.01537634977887028	-0.005119350806570828	0.2703114263298185	-4.445726180939817	-48.02849998842073	-10.63260227463985	2.116862732303088	-3.659628951337508	-645.2222140231852	48.16297956723295	0.583657962660559	0.7032270573389956	-0.3908929213599437	-1.700114023472835	-0.2368164181378224	-0.5366808937067964	2.081745956405802	-1.725179645607481	-1.725179645587393	0.6233152140347061	-0.05562898717944678	-0.8118566015315334	-0.4959290259192066	-2.277498439932167e-07	-2.599600215488794e-07	3.845207064380993e-07	-2.402436207408696e-06	1.07045237804502e-07	-3.296088389533207e-07	-4.450894641071371e-08
0.52	-0.2141831969473185	0.01323369914907085	0.7717127621371741	1.059017651013056	-0.2268105184917762	-0.1023466712070517	-0.670998171273968	1.063773841981258	1.063773841982184	-0.05891449351671493	0.1732333366818066	0.3143153995137744	0.140100899069665	-0.5057906665617599	-0.2055138422005534	-0.5998222717099461	2.161807920261436	-0.01658777817011255	0.2038738308132728	-0.6825735169769674	2.066387007333873	2.066387007334058	-0.4554530829842123	-0.009094430909837196	0.521046005001876	0.183405090815797	-0.2518296549586999	0.03104956516948936	0.01518094910239746	-0.2831572867864995	-0.0168272752680192	-0.004811554947328963	0.2772966842596504	-3.699031753601113	-48.88635691826263	-10.83515390235549	2.361637272727026	-3.552065115415447	-651.2266663933781	48.24608729025886	0.6244343938864522	0.7102790488251179	-0.3111276181042292	-1.855768146884909	-0.1970619656293965	-0.5924540973742739	2.142483530725082	-1.893712056165318	-1.893712056165292	0.535051289258715	-0.07403884279434184	-0.8527632359078234	-0.4611342517518911	-2.527132393556591e-07	-3.165143424525486e-07	1.554377915769127e-08	-2.917907183601561e-06	1.709546724166168e-07	-3.268972067437518e-07	-4.334416433198059e-07
0.53	-0.2192087181793	0.01121414927033885	0.7657004150970972	1.08053963969774	-0.2269873758856167	-0.1003338280601958	-0.6777166575200028	1.084340586828241	1.084340586828843	-0.06343653597143388	0.1731390224014135	0.3194819685359659	0.1419093172465212	-0.4992290267337273	-0.1983912406483553	-0.6025085681774337	2.142311648981353	-0.01877179489668348	0.1987599353884106	-0.661069884148447	2.046702907693533	2.04670290769395	-0.4488637977886654	-0.009771692657816532	0.5121865680135649	0.1782390189342577	-0.2594883390041495	0.03218545355777855	0.01520352254347484	-0.2883116231392884	-0.01824788524568183	-0.00463068580492763	0.2840351299371868	-3.02414106777062	-49.75067910950846	-11.1032053692152	2.627413775468777	-3.340996123813771	-657.2391082346023	48.25338028354789	0.6846688005546847	0.7140255477409544	-0.2266605364470476	-2.03833338976356	-0.2277342804097561	-0.4614937096046685	2.162380371135822	-2.044563908314221	-2.044563908279344	0.7346398910482109	-0.06570540374205734	-0.9147325888101024	-0.5506778560600024	-2.108740497221877e-07	-2.384211991309942e-07	2.693381417864484e-07	-2.266733163885924e-06	9.629287807254342e-08	-2.735213668385729e-07	-1.556260040037436e-07
